Title                            : Un prophète
Also Known As                    : A Prophet
Year                             : 2009
Genre                            : Crime | Drama
iMDB URL                         : http://www.imdb.com/title/tt1235166/
Awards                           : Nominated for Oscar. Another 25 wins & 15 nominations

Complete name                    : A.Prophet.2009.BRRIP.720P.H264-ZEKTORM.mp4
Format                           : MPEG-4
Format profile                   : Base Media
Codec ID                         : isom
File size                        : 2.44 GiB
Duration                         : 2h 35mn
Overall bit rate                 : 2251 Kbps
Subtitles                        : English (Format: srt) / English (Selectable)

Video
ID                               : 1
Format                           : AVC
Format/Info                      : Advanced Video Codec
Format profile                   : High@L4.0
Format settings, CABAC           : Yes
Format settings, ReFrames        : 4 frames
Codec ID                         : avc1
Codec ID/Info                    : Advanced Video Coding
Duration                         : 2h 35mn
Bit rate mode                    : Variable
Bit rate                         : 1959 Kbps
Width                            : 1280 pixels
Height                           : 688 pixels
Display aspect ratio             : 1.860
Frame rate mode                  : Constant
Frame rate                       : 23.976 fps
Resolution                       : 24 bits
Colorimetry                      : 4:2:0
Scan type                        : Progressive
Bits/(Pixel*Frame)               : 0.093
Stream size                      : 2.12 GiB (87%)
Title                            : Video
Writing library                  : x264

Audio #1
ID                               : 2
Format                           : AAC
Format/Info                      : Advanced Audio Codec
Format version                   : Version 4
Format profile                   : LC
Format settings, SBR             : Yes
Format settings, PS              : No
Codec ID                         : 40
Duration                         : 2h 35mn
Bit rate mode                    : Variable
Bit rate                         : 209 Kbps
Maximum bit rate                 : 253 Kbps
Channel(s)                       : 6 channels
Channel positions                : Front: L C R, Rear: L R, LFE
Sampling rate                    : 48.0 KHz
Resolution                       : 16 bits
Stream size                      : 232 MiB (9%)
Title                            : French
Language                         : French

Audio #2
ID                               : 3
Format                           : AAC
Format/Info                      : Advanced Audio Codec
Format version                   : Version 4
Format profile                   : LC
Format settings, SBR             : Yes
Format settings, PS              : No
Codec ID                         : 40
Duration                         : 2h 35mn
Bit rate mode                    : Variable
Bit rate                         : 79.8 Kbps
Maximum bit rate                 : 99.5 Kbps
Channel(s)                       : 2 channels
Channel positions                : L R
Sampling rate                    : 48.0 KHz
Resolution                       : 16 bits
Stream size                      : 88.6 MiB (4%)
Language                         : French

Text
ID                               : 4
Format                           : Timed text
Codec ID                         : tx3g
Duration                         : 2h 29mn
Bit rate mode                    : Variable
Bit rate                         : 36 bps
Stream size                      : 39.7 KiB (0%)
Language                         : English
